<svg width="36" height="36" viewBox="0 0 36 36" fill="none" xmlns="http://www.w3.org/2000/svg">
<circle cx="18" cy="18" r="18" fill="url(#paint0_linear)"/>
<path fill-rule="evenodd" clip-rule="evenodd" d="M27.9453 13.8801C27.8984 12.8173 27.7265 12.0867 27.4804 11.4538C27.2264 10.7818 26.8357 10.1801 26.3239 9.68002C25.8238 9.1721 25.2182 8.7775 24.554 8.52745C23.9172 8.28131 23.1905 8.1133 22.1278 8.06251C21.0572 8.01172 20.7173 8 18.002 8C15.2866 8 14.9467 8.01172 13.8801 8.05861C12.8173 8.10549 12.0867 8.2774 11.4538 8.52354C10.7818 8.7775 10.1801 9.1682 9.68002 9.68002C9.1721 10.1801 8.7775 10.7857 8.52745 11.4499C8.2813 12.0867 8.1133 12.8134 8.06251 13.8761C8.01172 14.9467 8 15.2866 8 18.002C8 20.7173 8.01172 21.0572 8.05861 22.1278C8.10549 23.1905 8.2774 23.9211 8.52354 24.554C8.77359 25.2221 9.1682 25.8277 9.67611 26.3239C10.1762 26.8318 10.7818 27.2264 11.446 27.4765C12.0828 27.7226 12.8095 27.8945 13.8722 27.9414C14.9389 27.9883 15.2788 28 17.9941 28C20.7095 28 21.0494 27.9883 22.116 27.9414C23.1787 27.8945 23.9094 27.7226 24.5423 27.4765C25.8863 26.9568 26.949 25.8941 27.4686 24.5501C27.7148 23.9133 27.8867 23.1866 27.9336 22.1239C27.9805 21.0572 27.9922 20.7173 27.9922 18.002C28.0039 15.2866 27.9922 14.9467 27.9453 13.8801ZM26.1442 22.0418C26.1012 23.0186 25.9371 23.546 25.8004 23.8976C25.4644 24.7689 24.7728 25.4604 23.9015 25.7964C23.5499 25.9332 23.0186 26.0973 22.0457 26.1403C20.9908 26.1871 20.6744 26.1989 18.0059 26.1989C15.3335 26.1989 15.017 26.1871 13.966 26.1403C12.9893 26.0973 12.4618 25.9332 12.1102 25.7964C11.6765 25.6363 11.2819 25.3823 10.9615 25.0463C10.6294 24.722 10.3755 24.3313 10.2114 23.8976C10.0746 23.546 9.91053 23.0147 9.86755 22.0418C9.82067 20.9869 9.80895 20.6704 9.80895 18.002C9.80895 15.3296 9.82067 15.0131 9.86755 13.9621C9.91053 12.9854 10.0746 12.4579 10.2114 12.1063C10.3716 11.6726 10.6294 11.278 10.9615 10.9576C11.2858 10.6255 11.6765 10.3716 12.1102 10.2114C12.4618 10.0746 12.9932 9.91053 13.966 9.86755C15.0209 9.82067 15.3374 9.80895 18.0059 9.80895C20.6783 9.80895 20.9947 9.82067 22.0457 9.86755C23.0225 9.91053 23.5499 10.0746 23.9015 10.2114C24.3352 10.3716 24.7298 10.6255 25.0502 10.9576C25.3823 11.2819 25.6363 11.6726 25.7964 12.1063C25.9332 12.4579 26.0973 12.9893 26.1403 13.9621C26.1871 15.017 26.1989 15.3335 26.1989 18.002C26.2028 20.6744 26.1911 20.9908 26.1442 22.0418ZM18.002 12.8642C15.1655 12.8642 12.8642 15.1655 12.8642 18.002C12.8642 20.8384 15.1655 23.1397 18.002 23.1397C20.8384 23.1397 23.1397 20.8384 23.1397 18.002C23.1397 15.1655 20.8384 12.8642 18.002 12.8642ZM18.002 21.3346C16.1618 21.3346 14.6693 19.8422 14.6693 18.002C14.6693 16.1618 16.1618 14.6693 18.002 14.6693C19.8422 14.6693 21.3346 16.1618 21.3346 18.002C21.3346 19.8422 19.8422 21.3346 18.002 21.3346ZM22.1434 12.6611C22.1434 12.0008 22.6787 11.4616 23.3428 11.4616C24.0031 11.4616 24.5423 12.0008 24.5423 12.6611C24.5423 13.3214 24.007 13.8605 23.3428 13.8605C22.6826 13.8605 22.1434 13.3253 22.1434 12.6611Z" fill="white"/>
<defs>
<linearGradient id="paint0_linear" x1="31" y1="5" x2="0.828478" y2="11.432" gradientUnits="userSpaceOnUse">
<stop stop-color="#4F5BD5"/>
<stop offset="0.265625" stop-color="#962FBF"/>
<stop offset="0.510417" stop-color="#D62976"/>
<stop offset="0.765625" stop-color="#FA7E1E"/>
<stop offset="1" stop-color="#FEDA75"/>
</linearGradient>
</defs>
</svg>
